REM DIRINDEX 1\2\6,1\2\7,1\2\8,1\2\9,1\3\10,1\3\11,1\4\12,1\4\13,1\4\14,1\5\15,1\5\16,1\5\17
REM DIRNAME cjc029,folder01,folder02,folder03,folder04,folder05,folder06,folder07,folder08,folder09,folder10,folder11,folder12,folder13,folder14,folder15,folder16
TITLE ""
FILE "1400_2_sec07_0650_0666.mp3" MP3
  TRACK 01 AUDIO
    TITLE "0:"
    INDEX 01 00:00:00
  TRACK 02 AUDIO
    TITLE "13:cjc029_2893"
    INDEX 01 00:00:17
  TRACK 03 AUDIO
    TITLE "0:"
    INDEX 01 00:01:36
  TRACK 04 AUDIO
    TITLE "14:cjc029_2894"
    INDEX 01 00:01:38
  TRACK 05 AUDIO
    TITLE "0:"
    INDEX 01 00:02:30
  TRACK 06 AUDIO
    TITLE "13:cjc029_2895"
    INDEX 01 00:03:14
  TRACK 07 AUDIO
    TITLE "0:"
    INDEX 01 00:04:17
  TRACK 08 AUDIO
    TITLE "14:cjc029_2896"
    INDEX 01 00:04:21
  TRACK 09 AUDIO
    TITLE "0:"
    INDEX 01 00:06:26
  TRACK 10 AUDIO
    TITLE "13:cjc029_2897"
    INDEX 01 00:07:09
  TRACK 11 AUDIO
    TITLE "0:"
    INDEX 01 00:08:19
  TRACK 12 AUDIO
    TITLE "14:cjc029_2898"
    INDEX 01 00:08:28
  TRACK 13 AUDIO
    TITLE "0:"
    INDEX 01 00:10:63
  TRACK 14 AUDIO
    TITLE "13:cjc029_2899"
    INDEX 01 00:11:46
  TRACK 15 AUDIO
    TITLE "0:"
    INDEX 01 00:12:50
  TRACK 16 AUDIO
    TITLE "14:cjc029_2900"
    INDEX 01 00:12:56
  TRACK 17 AUDIO
    TITLE "0:"
    INDEX 01 00:17:21
  TRACK 18 AUDIO
    TITLE "13:cjc029_2901"
    INDEX 01 00:18:03
  TRACK 19 AUDIO
    TITLE "0:"
    INDEX 01 00:19:09
  TRACK 20 AUDIO
    TITLE "14:cjc029_2902"
    INDEX 01 00:19:16
  TRACK 21 AUDIO
    TITLE "0:"
    INDEX 01 00:20:18
  TRACK 22 AUDIO
    TITLE "13:cjc029_2903"
    INDEX 01 00:21:02
  TRACK 23 AUDIO
    TITLE "0:"
    INDEX 01 00:22:11
  TRACK 24 AUDIO
    TITLE "14:cjc029_2904"
    INDEX 01 00:22:15
  TRACK 25 AUDIO
    TITLE "0:"
    INDEX 01 00:24:33
  TRACK 26 AUDIO
    TITLE "13:cjc029_2905"
    INDEX 01 00:25:15
  TRACK 27 AUDIO
    TITLE "0:"
    INDEX 01 00:26:46
  TRACK 28 AUDIO
    TITLE "14:cjc029_2906"
    INDEX 01 00:26:52
  TRACK 29 AUDIO
    TITLE "0:"
    INDEX 01 00:28:74
  TRACK 30 AUDIO
    TITLE "13:cjc029_2907"
    INDEX 01 00:29:54
  TRACK 31 AUDIO
    TITLE "0:"
    INDEX 01 00:30:65
  TRACK 32 AUDIO
    TITLE "14:cjc029_2908"
    INDEX 01 00:30:69
  TRACK 33 AUDIO
    TITLE "0:"
    INDEX 01 00:34:69
  TRACK 34 AUDIO
    TITLE "13:cjc029_2909"
    INDEX 01 00:35:53
  TRACK 35 AUDIO
    TITLE "0:"
    INDEX 01 00:37:05
  TRACK 36 AUDIO
    TITLE "14:cjc029_2910"
    INDEX 01 00:37:10
  TRACK 37 AUDIO
    TITLE "0:"
    INDEX 01 00:39:45
  TRACK 38 AUDIO
    TITLE "13:cjc029_2911"
    INDEX 01 00:40:30
  TRACK 39 AUDIO
    TITLE "0:"
    INDEX 01 00:41:53
  TRACK 40 AUDIO
    TITLE "14:cjc029_2912"
    INDEX 01 00:41:59
  TRACK 41 AUDIO
    TITLE "0:"
    INDEX 01 00:43:05
  TRACK 42 AUDIO
    TITLE "13:cjc029_2913"
    INDEX 01 00:43:62
  TRACK 43 AUDIO
    TITLE "0:"
    INDEX 01 00:45:16
  TRACK 44 AUDIO
    TITLE "14:cjc029_2914"
    INDEX 01 00:45:24
  TRACK 45 AUDIO
    TITLE "0:"
    INDEX 01 00:46:37
  TRACK 46 AUDIO
    TITLE "13:cjc029_2915"
    INDEX 01 00:47:21
  TRACK 47 AUDIO
    TITLE "0:"
    INDEX 01 00:48:38
  TRACK 48 AUDIO
    TITLE "14:cjc029_2916"
    INDEX 01 00:48:44
  TRACK 49 AUDIO
    TITLE "0:"
    INDEX 01 00:51:54
  TRACK 50 AUDIO
    TITLE "13:cjc029_2917"
    INDEX 01 00:52:37
  TRACK 51 AUDIO
    TITLE "0:"
    INDEX 01 00:53:39
  TRACK 52 AUDIO
    TITLE "14:cjc029_2918"
    INDEX 01 00:53:43
  TRACK 53 AUDIO
    TITLE "0:"
    INDEX 01 00:55:59
  TRACK 54 AUDIO
    TITLE "13:cjc029_2919"
    INDEX 01 00:56:43
  TRACK 55 AUDIO
    TITLE "0:"
    INDEX 01 00:57:62
  TRACK 56 AUDIO
    TITLE "14:cjc029_2920"
    INDEX 01 00:57:68
  TRACK 57 AUDIO
    TITLE "0:"
    INDEX 01 00:59:06
  TRACK 58 AUDIO
    TITLE "13:cjc029_2921"
    INDEX 01 00:59:61
  TRACK 59 AUDIO
    TITLE "0:"
    INDEX 01 01:00:70
  TRACK 60 AUDIO
    TITLE "14:cjc029_2922"
    INDEX 01 01:00:74
  TRACK 61 AUDIO
    TITLE "0:"
    INDEX 01 01:03:69
  TRACK 62 AUDIO
    TITLE "13:cjc029_2923"
    INDEX 01 01:04:54
  TRACK 63 AUDIO
    TITLE "0:"
    INDEX 01 01:06:00
  TRACK 64 AUDIO
    TITLE "14:cjc029_2924"
    INDEX 01 01:06:06
  TRACK 65 AUDIO
    TITLE "0:"
    INDEX 01 01:08:25
  TRACK 66 AUDIO
    TITLE "13:cjc029_2925"
    INDEX 01 01:09:07
  TRACK 67 AUDIO
    TITLE "0:"
    INDEX 01 01:10:18
  TRACK 68 AUDIO
    TITLE "14:cjc029_2926"
    INDEX 01 01:10:26
  TRACK 69 AUDIO
    TITLE "0:"
    INDEX 01 01:11:35
